<svg width="24" height="24" viewBox="0 0 24 24" fill="none" xmlns="http://www.w3.org/2000/svg">
<path d="M8.35374 4.43893C8.21435 4.57823 8.10378 4.74364 8.02834 4.92569C7.95289 5.10774 7.91406 5.30287 7.91406 5.49994C7.91406 5.697 7.95289 5.89213 8.02834 6.07418C8.10378 6.25623 8.21435 6.42164 8.35374 6.56094L12.9387 11.1469C13.0325 11.2407 13.0851 11.3679 13.0851 11.5004C13.0851 11.633 13.0325 11.7602 12.9387 11.8539L8.35374 16.4389C8.07235 16.7202 7.91421 17.1017 7.91411 17.4996C7.91402 17.8974 8.07198 18.279 8.35324 18.5604C8.6345 18.8418 9.01603 19 9.41389 19.0001C9.81175 19.0002 10.1933 18.8422 10.4747 18.5609L15.0607 13.9749C15.3858 13.6499 15.6436 13.2641 15.8195 12.8394C15.9955 12.4147 16.086 11.9596 16.086 11.4999C16.086 11.0403 15.9955 10.5851 15.8195 10.1605C15.6436 9.7358 15.3858 9.34994 15.0607 9.02493L10.4747 4.43893C10.1935 4.15773 9.81199 3.99976 9.41424 3.99976C9.0165 3.99976 8.63503 4.15773 8.35374 4.43893Z" fill="#181C2C"/>
</svg>
