<svg width="20" height="21" viewBox="0 0 20 21" fill="none" xmlns="http://www.w3.org/2000/svg">
<path d="M2.5 7.16667C2.5 6.24619 3.24619 5.5 4.16667 5.5H15.8333C16.7538 5.5 17.5 6.24619 17.5 7.16667V15.5C17.5 16.4205 16.7538 17.1667 15.8333 17.1667H4.16667C3.24619 17.1667 2.5 16.4205 2.5 15.5V7.16667Z" stroke="#504B4B" stroke-width="1.66667" stroke-linejoin="round"/>
<path d="M13.3346 5.5L12.8812 4.13962C12.6543 3.45905 12.0174 3 11.3 3H8.70257C7.98518 3 7.34829 3.45905 7.12143 4.13962L6.66797 5.5" stroke="#504B4B" stroke-width="1.66667" stroke-linejoin="round"/>
<path d="M17.5 8.83398L15.081 12.2898C14.7691 12.7353 14.2594 13.0007 13.7156 13.0007H6.28443C5.74057 13.0007 5.23092 12.7353 4.91904 12.2898L2.5 8.83398" stroke="#504B4B" stroke-width="1.66667" stroke-linecap="round" stroke-linejoin="round"/>
</svg>
