<svg width="106" height="106" viewBox="0 0 106 106" fill="none" xmlns="http://www.w3.org/2000/svg">
<g clip-path="url(#clip0_1_3981)">
<path opacity="0.5" d="M99.0154 44.1663C94.1723 37.5901 87.2648 32.827 79.3965 30.6381C76.9426 21.64 71.1059 13.9385 63.1064 9.14322C55.1069 4.34794 45.5635 2.82997 36.471 4.90656C31.2854 6.09236 26.426 8.40945 22.2402 11.6921C18.0545 14.9747 14.6459 19.1417 12.2582 23.8952C9.8705 28.6486 8.56275 33.8709 8.42848 39.1886C8.2942 44.5063 9.33671 49.788 11.4815 54.6559C7.0002 57.6001 3.55956 61.8804 1.64745 66.8898C-0.264665 71.8992 -0.551209 77.3834 0.828452 82.5648C2.34517 88.1119 5.66913 92.9945 10.2739 96.4393C14.8787 99.8841 20.5011 101.694 26.2508 101.583H37.5398C39.2968 101.583 40.9819 100.885 42.2244 99.6426C43.4668 98.4001 44.1648 96.715 44.1648 94.958C44.1648 93.2009 43.4668 91.5158 42.2244 90.2734C40.9819 89.031 39.2968 88.333 37.5398 88.333H26.2508C23.4592 88.4089 20.7196 87.5682 18.4511 85.9394C16.1826 84.3106 14.5102 81.9835 13.6898 79.3141C13.2599 77.7347 13.1478 76.0855 13.3601 74.4624C13.5724 72.8393 14.1049 71.2745 14.9266 69.8587C15.7483 68.4429 16.8429 67.2043 18.1469 66.2148C19.4509 65.2253 20.9384 64.5046 22.5231 64.0943C23.5742 63.8231 24.5426 63.2977 25.343 62.5645C26.1434 61.8312 26.7514 60.9125 27.1134 59.8891C27.4755 58.8657 27.5805 57.7691 27.4193 56.6956C27.2581 55.6221 26.8356 54.6047 26.1889 53.7328C24.0722 50.8777 22.647 47.5704 22.0254 44.071C21.4039 40.5716 21.603 36.9757 22.607 33.5663C23.7113 29.7516 25.8044 26.2967 28.6743 23.5517C31.5441 20.8067 35.0887 18.8693 38.9487 17.9357C40.7788 17.5075 42.6518 17.2896 44.5314 17.2865C49.5018 17.2716 54.3397 18.8884 58.3025 21.8886C63.1642 25.5778 66.3633 31.0452 67.1977 37.0908C67.3852 38.5392 68.0436 39.8857 69.0715 40.9232C70.0994 41.9607 71.4398 42.6315 72.8864 42.8325C75.9428 43.2513 78.8844 44.2784 81.5372 45.8533C84.19 47.4281 86.5002 49.5187 88.3314 52.0015C90.1578 54.488 91.4597 57.3197 92.1582 60.3248C92.8567 63.3299 92.9372 66.4455 92.3948 69.4827C91.8339 72.4753 90.6639 75.3208 88.9575 77.8424C87.251 80.3641 85.0445 82.5082 82.4749 84.1416C81.5576 84.7467 80.8052 85.5706 80.2855 86.539C79.7658 87.5074 79.4952 88.5899 79.4981 89.6889C79.4884 90.8857 79.8 92.0632 80.4002 93.0986C81.0004 94.1341 81.8674 94.9896 82.9107 95.576C83.9541 96.1624 85.1356 96.4582 86.3322 96.4326C87.5287 96.4071 88.6965 96.061 89.7139 95.4306C93.8334 92.7856 97.3596 89.3149 100.07 85.238C102.78 81.161 104.615 76.5662 105.459 71.744C106.312 66.9505 106.18 62.0337 105.072 57.2928C103.964 52.5518 101.904 48.0857 99.0154 44.1663Z" fill="#D9D9D9"/>
<path d="M68.4599 99.3752V75.0836H75.8048C76.6782 75.0834 77.5319 74.8242 78.258 74.3389C78.9842 73.8536 79.5501 73.1639 79.8843 72.3569C80.2186 71.55 80.306 70.6621 80.1357 69.8055C79.9653 68.9489 79.5449 68.162 78.9274 67.5443L64.9574 53.5744C64.1292 52.7464 63.006 52.2812 61.8349 52.2812C60.6637 52.2812 59.5405 52.7464 58.7123 53.5744L44.7424 67.5443C44.1249 68.162 43.7044 68.9489 43.534 69.8055C43.3637 70.6621 43.4512 71.55 43.7854 72.3569C44.1196 73.1639 44.6855 73.8536 45.4117 74.3389C46.1378 74.8242 46.9915 75.0834 47.8649 75.0836H55.2099V99.3752C55.2099 101.132 55.9078 102.817 57.1503 104.06C58.3927 105.302 60.0778 106 61.8349 106C63.5919 106 65.277 105.302 66.5194 104.06C67.7619 102.817 68.4599 101.132 68.4599 99.3752Z" fill="#D9D9D9"/>
</g>
<defs>
<clipPath id="clip0_1_3981">
<rect width="106" height="106" fill="white"/>
</clipPath>
</defs>
</svg>
