<svg width="40" height="40" viewBox="0 0 40 40" fill="none" xmlns="http://www.w3.org/2000/svg">
<path d="M31.7854 5.85909L5.8582 31.7863C5.20732 32.4372 5.20732 33.4925 5.8582 34.1434C6.50907 34.7942 7.56435 34.7942 8.21522 34.1434L34.1425 8.21611C34.7933 7.56523 34.7933 6.50996 34.1425 5.85908C33.4916 5.20821 32.4363 5.20821 31.7854 5.85909Z" fill="white"/>
<path d="M8.21455 5.85909L34.1418 31.7863C34.7927 32.4372 34.7927 33.4925 34.1418 34.1434C33.4909 34.7942 32.4357 34.7942 31.7848 34.1434L5.85753 8.21611C5.20666 7.56523 5.20666 6.50996 5.85753 5.85908C6.5084 5.20821 7.56368 5.20821 8.21455 5.85909Z" fill="white"/>
</svg>
