<svg width="24" height="24" viewBox="0 0 24 24" fill="none" xmlns="http://www.w3.org/2000/svg">
<path d="M3.5 5.5C3.5 4.39543 4.39543 3.5 5.5 3.5H18.5C19.6046 3.5 20.5 4.39543 20.5 5.5V18.5C20.5 19.6046 19.6046 20.5 18.5 20.5H5.5C4.39543 20.5 3.5 19.6046 3.5 18.5V5.5Z" stroke="black" stroke-width="2" stroke-linecap="round" stroke-linejoin="round"/>
<path d="M8 7C7.44772 7 7 7.44772 7 8C7 8.55228 7.44772 9 8 9L8 7ZM11 9C11.5523 9 12 8.55228 12 8C12 7.44772 11.5523 7 11 7V9ZM8 11C7.44772 11 7 11.4477 7 12C7 12.5523 7.44772 13 8 13L8 11ZM15 13C15.5523 13 16 12.5523 16 12C16 11.4477 15.5523 11 15 11V13ZM8 15C7.44772 15 7 15.4477 7 16C7 16.5523 7.44772 17 8 17V15ZM13 17C13.5523 17 14 16.5523 14 16C14 15.4477 13.5523 15 13 15V17ZM8 9L11 9V7L8 7L8 9ZM8 13L15 13V11L8 11L8 13ZM8 17H13V15H8V17Z" fill="black"/>
</svg>
