<svg width="100" height="100" viewBox="0 0 100 100" fill="none" xmlns="http://www.w3.org/2000/svg">
<circle cx="50" cy="50" r="50" fill="#090C1F"/>
<path d="M63.2664 61.5497L63.2664 61.5497L63.2762 61.544C65.3464 60.3275 66.6329 58.1049 66.6329 55.7007V44.3007C66.6329 41.8772 65.3441 39.6725 63.2762 38.4574L63.2762 38.4574L63.2664 38.4517L53.3664 32.735L53.3664 32.735L53.3605 32.7316C51.2684 31.5361 48.6994 31.5323 46.6163 32.7349L46.6162 32.735L36.7162 38.4517L36.7162 38.4516L36.7063 38.4574C34.6362 39.6739 33.3496 41.8965 33.3496 44.3007V55.7007C33.3496 58.1168 34.6328 60.3469 36.7162 61.5497C36.7162 61.5497 36.7163 61.5498 36.7163 61.5498L46.6162 67.2664L46.6221 67.2697C48.7142 68.4652 51.2831 68.4691 53.3662 67.2664L53.3664 67.2664L63.2664 61.5497Z" stroke="white" stroke-width="3" stroke-linecap="round" stroke-linejoin="round"/>
<path d="M49.9986 48.333C52.1433 48.333 53.8819 46.5944 53.8819 44.4497C53.8819 42.305 52.1433 40.5664 49.9986 40.5664C47.8539 40.5664 46.1152 42.305 46.1152 44.4497C46.1152 46.5944 47.8539 48.333 49.9986 48.333Z" stroke="white" stroke-width="3" stroke-linecap="round" stroke-linejoin="round"/>
<path d="M56.6654 57.7672C56.6654 54.7672 53.682 52.334 49.9987 52.334C46.3154 52.334 43.332 54.7672 43.332 57.7672" stroke="white" stroke-width="3" stroke-linecap="round" stroke-linejoin="round"/>
</svg>
