<svg width="153" height="46" viewBox="0 0 153 46" fill="none" xmlns="http://www.w3.org/2000/svg">
<path d="M74.7146 16.3456C75.9152 15.7136 76.6735 14.5762 76.6735 13.1017C76.6735 10.8058 74.7778 9.2681 71.0916 9.2681H63.8877V24.0128H71.5129C75.3886 24.0128 77.4107 22.5383 77.4107 19.9896C77.4107 18.136 76.3576 16.8722 74.7146 16.3456ZM70.6703 11.8379C72.3344 11.8379 73.2401 12.4066 73.2401 13.5651C73.2401 14.7236 72.3344 15.3134 70.6703 15.3134H67.279V11.8379H70.6703ZM71.2601 21.443H67.279V17.799H71.2601C73.0295 17.799 73.9773 18.3888 73.9773 19.6315C73.9773 20.8954 73.0295 21.443 71.2601 21.443Z" fill="#131725"/>
<path d="M90.8631 18.3888C90.8631 14.7447 88.2934 12.5119 84.9653 12.5119C81.5108 12.5119 78.9199 14.9553 78.9199 18.3466C78.9199 21.7168 81.4687 24.1813 85.3865 24.1813C87.4297 24.1813 89.0095 23.5494 90.0627 22.3488L88.3144 20.453C87.5351 21.1902 86.6714 21.5483 85.4708 21.5483C83.7436 21.5483 82.5429 20.6847 82.227 19.2734H90.8C90.821 18.9996 90.8631 18.6415 90.8631 18.3888ZM84.9863 14.9975C86.4608 14.9975 87.5351 15.9243 87.7668 17.3566H82.1848C82.4165 15.9032 83.4908 14.9975 84.9863 14.9975Z" fill="#131725"/>
<path d="M96.1893 14.176V12.6804H93.0508V24.0128H96.3368V18.6626C96.3368 16.493 97.5374 15.503 99.3489 15.503C99.6017 15.503 99.8123 15.5241 100.086 15.5451V12.5119C98.3379 12.5119 96.9898 13.0807 96.1893 14.176Z" fill="#131725"/>
<path d="M102.04 24.0128H105.326V8.38342H102.04V24.0128Z" fill="#131725"/>
<path d="M110.019 11.1007C111.24 11.1007 112.062 10.3002 112.062 9.20491C112.062 8.19385 111.24 7.43555 110.019 7.43555C108.797 7.43555 107.975 8.23597 107.975 9.2681C107.975 10.3002 108.797 11.1007 110.019 11.1007ZM108.376 24.0128H111.662V12.6804H108.376V24.0128Z" fill="#131725"/>
<path d="M121.599 12.5119C120.061 12.5119 118.734 13.0385 117.85 14.0075V12.6804H114.711V24.0128H117.997V18.4098C117.997 16.3245 119.135 15.3556 120.714 15.3556C122.168 15.3556 123.01 16.1981 123.01 18.0307V24.0128H126.296V17.5251C126.296 14.0707 124.274 12.5119 121.599 12.5119Z" fill="#131725"/>
<path d="M137.722 24.0128H141.703L136.563 17.483L141.281 12.6804H137.363L132.561 17.2302V8.38342H129.275V24.0128H132.561V21.1271L134.141 19.5683L137.722 24.0128Z" fill="#131725"/>
<path d="M147.545 12.5119C145.734 12.5119 143.901 12.9964 142.659 13.8811L143.838 16.177C144.66 15.5241 145.903 15.1239 147.103 15.1239C148.873 15.1239 149.715 15.9453 149.715 17.3566H147.103C143.649 17.3566 142.237 18.7468 142.237 20.7479C142.237 22.7068 143.817 24.1813 146.471 24.1813C148.135 24.1813 149.315 23.6337 149.926 22.6015V24.0128H153.001V17.5462C153.001 14.1128 151 12.5119 147.545 12.5119ZM147.293 21.9696C146.134 21.9696 145.439 21.422 145.439 20.6005C145.439 19.8422 145.924 19.2734 147.461 19.2734H149.715V20.432C149.336 21.4641 148.388 21.9696 147.293 21.9696Z" fill="#131725"/>
<path d="M73.851 37.7886C72.9873 38.252 72.1237 38.4205 71.1969 38.4205C68.3743 38.4205 66.4154 36.4615 66.4154 33.7022C66.4154 30.9007 68.3743 28.9839 71.239 28.9839C72.7346 28.9839 73.9773 29.5105 75.0516 30.6479L77.2422 28.6258C75.8099 26.9617 73.6614 26.0771 71.0705 26.0771C66.3733 26.0771 62.9609 29.2577 62.9609 33.7022C62.9609 38.1467 66.3733 41.3273 71.0073 41.3273C73.1137 41.3273 75.3465 40.6743 76.9684 39.4526V33.4705H73.851V37.7886Z" fill="#131725"/>
<path d="M83.045 31.2377V29.7422H79.9065V41.0745H83.1924V35.7243C83.1924 33.5547 84.3931 32.5647 86.2046 32.5647C86.4573 32.5647 86.668 32.5858 86.9418 32.6069V29.5737C85.1935 29.5737 83.8454 30.1424 83.045 31.2377Z" fill="#131725"/>
<path d="M94.1851 41.243C97.7871 41.243 100.399 38.8207 100.399 35.4084C100.399 31.996 97.7871 29.5737 94.1851 29.5737C90.5832 29.5737 87.9502 31.996 87.9502 35.4084C87.9502 38.8207 90.5832 41.243 94.1851 41.243ZM94.1851 38.5469C92.5422 38.5469 91.2783 37.3673 91.2783 35.4084C91.2783 33.4494 92.5422 32.2698 94.1851 32.2698C95.8281 32.2698 97.0709 33.4494 97.0709 35.4084C97.0709 37.3673 95.8281 38.5469 94.1851 38.5469Z" fill="#131725"/>
<path d="M110.726 29.7422V35.3452C110.726 37.4305 109.631 38.3994 108.114 38.3994C106.661 38.3994 105.818 37.5569 105.818 35.6611V29.7422H102.532V36.1456C102.532 39.6422 104.533 41.243 107.377 41.243C108.767 41.243 110.031 40.7164 110.895 39.7265V41.0745H114.012V29.7422H110.726Z" fill="#131725"/>
<path d="M123.755 29.5737C122.238 29.5737 121.016 30.0581 120.195 31.0481V29.7422H117.056V45.1609H120.342V39.8739C121.185 40.8007 122.343 41.243 123.755 41.243C126.935 41.243 129.4 38.9681 129.4 35.4084C129.4 31.8486 126.935 29.5737 123.755 29.5737ZM123.186 38.5469C121.543 38.5469 120.3 37.3673 120.3 35.4084C120.3 33.4494 121.543 32.2698 123.186 32.2698C124.829 32.2698 126.072 33.4494 126.072 35.4084C126.072 37.3673 124.829 38.5469 123.186 38.5469Z" fill="#131725"/>
<path fill-rule="evenodd" clip-rule="evenodd" d="M23.9465 19.4486V24.6642H23.9513V45.6032H6.81664C5.01416 45.6055 3.28298 44.8999 1.99635 43.6387C0.718302 42.381 1.35226e-06 40.6757 1.35226e-06 38.8972V28.1672C-0.000665704 27.1245 0.245465 26.0965 0.718302 25.167C1.19368 24.233 1.88102 23.423 2.72546 22.8016C1.88102 22.1802 1.19368 21.3702 0.718302 20.4363C0.245041 19.505 1.35226e-06 18.4777 1.35226e-06 17.436V6.70608C0.00110392 5.82331 0.177963 4.94958 0.520284 4.13576C0.862604 3.32194 1.36355 2.58428 1.99395 1.96574C3.2795 0.704964 5.00923 -0.000956381 6.81064 9.72484e-07H23.9465V16.9188H17.047V6.70608H6.81664V16.7772C6.81717 17.129 6.88774 17.4772 7.02426 17.8015C7.16077 18.1258 7.3605 18.4197 7.61182 18.6661C8.12111 19.1678 8.81179 19.4486 9.53249 19.4486H23.9465ZM17.047 38.8972H6.81664V28.8261C6.81717 28.4742 6.88774 28.1261 7.02426 27.8018C7.16077 27.4775 7.3605 27.1835 7.61182 26.9371C8.12111 26.4367 8.81179 26.1547 9.53249 26.1547H17.047V38.8972ZM38.1768 19.4486V26.1547V26.1559H43.6301V38.8948H33.4057V6.70729H43.6301V16.92H50.4479V6.70729C50.4469 5.82395 50.2698 4.94966 49.927 4.13539C49.5843 3.32113 49.0827 2.58317 48.4516 1.96455C47.1647 0.703043 45.433 -0.00253028 43.6301 7.79628e-06H26.5014V45.6032H43.6301C45.4329 45.6048 47.1642 44.8984 48.4504 43.6363C49.0814 43.0178 49.5828 42.2801 49.9256 41.466C50.2683 40.652 50.4455 39.7779 50.4468 38.8948V19.4486H38.1768Z" fill="#131725"/>
</svg>
