<svg width="651" height="600" viewBox="0 0 651 600" fill="none" xmlns="http://www.w3.org/2000/svg">
<path d="M72.0703 492V466.365L94.9219 461.971L94.9219 441.023H7.91016L5.85937 420.076L94.4824 278.719H137.549V412.605H161.719L161.719 441.023H137.549V461.971L160.254 466.365V492H72.0703ZM45.7031 412.605H94.9219L94.9219 335.701L94.043 335.408L90.5273 341.561L45.7031 412.605Z" fill="white"/>
<path d="M72.0703 492H71.0703V493H72.0703V492ZM72.0703 466.365L71.8815 465.383L71.0703 465.539V466.365H72.0703ZM94.9219 461.971L95.1107 462.953L95.9219 462.797V461.971H94.9219ZM94.9219 441.023H95.9219V440.023H94.9219V441.023ZM7.91016 441.023L6.91491 441.121L7.00328 442.023H7.91016V441.023ZM5.85937 420.076L5.01212 419.545L4.83089 419.834L4.86413 420.174L5.85937 420.076ZM94.4824 278.719V277.719H93.9291L93.6352 278.188L94.4824 278.719ZM137.549 278.719H138.549V277.719H137.549V278.719ZM137.549 412.605H136.549V413.605H137.549V412.605ZM161.719 412.605H162.719V411.605H161.719V412.605ZM161.719 441.023V442.023H162.719V441.023H161.719ZM137.549 441.023V440.023H136.549V441.023H137.549ZM137.549 461.971H136.549V462.796L137.359 462.952L137.549 461.971ZM160.254 466.365H161.254V465.54L160.444 465.383L160.254 466.365ZM160.254 492V493H161.254V492H160.254ZM45.7031 412.605L44.8574 412.072L43.8898 413.605H45.7031V412.605ZM94.9219 412.605V413.605H95.9219V412.605H94.9219ZM94.9219 335.701H95.9219V334.98L95.2381 334.752L94.9219 335.701ZM94.043 335.408L94.3592 334.46L93.5815 334.2L93.1747 334.912L94.043 335.408ZM90.5273 341.561L91.3731 342.094L91.3847 342.076L91.3956 342.057L90.5273 341.561ZM73.0703 492V466.365H71.0703V492H73.0703ZM72.2592 467.347L95.1107 462.953L94.733 460.989L71.8815 465.383L72.2592 467.347ZM95.9219 461.971L95.9219 441.023H93.9219L93.9219 461.971H95.9219ZM94.9219 440.023H7.91016V442.023H94.9219V440.023ZM8.9054 440.926L6.85462 419.979L4.86413 420.174L6.91491 441.121L8.9054 440.926ZM6.70663 420.607L95.3297 279.25L93.6352 278.188L5.01212 419.545L6.70663 420.607ZM94.4824 279.719H137.549V277.719H94.4824V279.719ZM136.549 278.719V412.605H138.549V278.719H136.549ZM137.549 413.605H161.719V411.605H137.549V413.605ZM160.719 412.605L160.719 441.023H162.719L162.719 412.605H160.719ZM161.719 440.023H137.549V442.023H161.719V440.023ZM136.549 441.023V461.971H138.549V441.023H136.549ZM137.359 462.952L160.064 467.347L160.444 465.383L137.739 460.989L137.359 462.952ZM159.254 466.365V492H161.254V466.365H159.254ZM160.254 491H72.0703V493H160.254V491ZM45.7031 413.605H94.9219V411.605H45.7031V413.605ZM95.9219 412.605L95.9219 335.701H93.9219L93.9219 412.605H95.9219ZM95.2381 334.752L94.3592 334.46L93.7267 336.357L94.6056 336.65L95.2381 334.752ZM93.1747 334.912L89.6591 341.064L91.3956 342.057L94.9112 335.904L93.1747 334.912ZM89.6816 341.027L44.8574 412.072L46.5489 413.139L91.3731 342.094L89.6816 341.027Z" fill="white"/>
<path d="M97.4297 491H96.647V491.783H97.4297V491ZM97.4297 465.536L97.2819 464.768L96.647 464.89V465.536H97.4297ZM120.129 461.171L120.277 461.94L120.912 461.817L120.912 461.171H120.129ZM120.129 440.363H120.912V439.581H120.129V440.363ZM33.6973 440.363L32.9183 440.44L32.9874 441.146H33.6973V440.363ZM31.6602 419.556L30.997 419.14L30.8551 419.366L30.8812 419.632L31.6602 419.556ZM119.692 279.141V278.358H119.259L119.029 278.725L119.692 279.141ZM162.472 279.141H163.254V278.358H162.472V279.141ZM162.472 412.135H161.689V412.917H162.472V412.135ZM186.48 412.135H187.263V411.352H186.48V412.135ZM186.48 440.363V441.146H187.263V440.363H186.48ZM162.472 440.363V439.581H161.689V440.363H162.472ZM162.472 461.171H161.689V461.817L162.323 461.939L162.472 461.171ZM185.025 465.536H185.808V464.89L185.174 464.768L185.025 465.536ZM185.025 491V491.783H185.808V491H185.025ZM71.2383 412.135L70.5763 411.717L69.819 412.917H71.2383V412.135ZM120.129 412.135V412.917H120.912V412.135H120.129ZM120.129 335.743H120.912V335.179L120.376 335.001L120.129 335.743ZM119.256 335.452L119.503 334.71L118.895 334.507L118.576 335.064L119.256 335.452ZM115.764 341.563L116.426 341.981L116.435 341.967L116.443 341.952L115.764 341.563ZM98.2124 491V465.536H96.647V491H98.2124ZM97.5775 466.305L120.277 461.94L119.981 460.402L97.2819 464.768L97.5775 466.305ZM120.912 461.171V440.363H119.346V461.171H120.912ZM120.129 439.581H33.6973V441.146H120.129V439.581ZM34.4763 440.287L32.4391 419.479L30.8812 419.632L32.9183 440.44L34.4763 440.287ZM32.3233 419.971L120.356 279.556L119.029 278.725L30.997 419.14L32.3233 419.971ZM119.692 279.923H162.472V278.358H119.692V279.923ZM161.689 279.141V412.135H163.254V279.141H161.689ZM162.472 412.917H186.48V411.352H162.472V412.917ZM185.698 412.135L185.698 440.363H187.263L187.263 412.135H185.698ZM186.48 439.581H162.472V441.146H186.48V439.581ZM161.689 440.363V461.171H163.254V440.363H161.689ZM162.323 461.939L184.877 466.305L185.174 464.768L162.62 460.402L162.323 461.939ZM184.243 465.536V491H185.808V465.536H184.243ZM185.025 490.217H97.4297V491.783H185.025V490.217ZM71.2383 412.917H120.129V411.352H71.2383V412.917ZM120.912 412.135L120.912 335.743H119.346L119.346 412.135H120.912ZM120.376 335.001L119.503 334.71L119.008 336.195L119.881 336.486L120.376 335.001ZM118.576 335.064L115.084 341.175L116.443 341.952L119.935 335.84L118.576 335.064ZM115.102 341.146L70.5763 411.717L71.9002 412.552L116.426 341.981L115.102 341.146Z" fill="white"/>
<path d="M313.412 495.076C291.146 495.076 273.52 487.801 260.531 473.25C247.543 458.602 241.049 437.166 241.049 408.943V361.922C241.049 333.797 247.494 312.41 260.385 297.762C273.373 283.016 290.951 275.643 313.119 275.643C335.189 275.643 352.719 283.016 365.707 297.762C378.793 312.41 385.336 333.797 385.336 361.922V408.943C385.336 437.166 378.842 458.602 365.854 473.25C352.963 487.801 335.482 495.076 313.412 495.076ZM313.412 462.264C322.982 462.264 330.258 458.357 335.238 450.545C340.219 442.732 342.709 430.232 342.709 413.045L342.709 357.527C342.709 340.535 340.17 328.133 335.092 320.32C330.014 312.508 322.689 308.602 313.119 308.602C303.451 308.602 296.127 312.508 291.146 320.32C286.166 328.133 283.676 340.535 283.676 357.527V413.045C283.676 430.232 286.166 442.732 291.146 450.545C296.225 458.357 303.646 462.264 313.412 462.264Z" fill="white"/>
<path d="M260.531 473.25L259.783 473.913L259.785 473.916L260.531 473.25ZM260.385 297.762L259.634 297.101L259.634 297.101L260.385 297.762ZM365.707 297.762L364.957 298.423L364.961 298.428L365.707 297.762ZM365.854 473.25L365.105 472.587L365.105 472.587L365.854 473.25ZM291.146 450.545L290.303 451.082L290.308 451.09L291.146 450.545ZM313.412 494.076C291.387 494.076 274.048 486.891 261.277 472.584L259.785 473.916C272.991 488.71 290.906 496.076 313.412 496.076V494.076ZM261.279 472.587C248.512 458.188 242.049 437.028 242.049 408.943H240.049C240.049 437.304 246.574 459.016 259.783 473.913L261.279 472.587ZM242.049 408.943V361.922H240.049V408.943H242.049ZM242.049 361.922C242.049 333.934 248.464 312.822 261.135 298.422L259.634 297.101C246.524 311.998 240.049 333.659 240.049 361.922H242.049ZM261.135 298.423C273.908 283.921 291.197 276.643 313.119 276.643V274.643C290.705 274.643 272.838 282.11 259.634 297.101L261.135 298.423ZM313.119 276.643C334.942 276.643 352.183 283.92 364.957 298.423L366.457 297.101C353.255 282.111 335.437 274.643 313.119 274.643V276.643ZM364.961 298.428C377.825 312.827 384.336 333.938 384.336 361.922H386.336C386.336 333.656 379.761 311.993 366.453 297.096L364.961 298.428ZM384.336 361.922V408.943H386.336V361.922H384.336ZM384.336 408.943C384.336 437.028 377.872 458.188 365.105 472.587L366.602 473.913C379.811 459.016 386.336 437.304 386.336 408.943H384.336ZM365.105 472.587C352.431 486.893 335.239 494.076 313.412 494.076V496.076C335.726 496.076 353.495 488.708 366.602 473.913L365.105 472.587ZM313.412 463.264C323.31 463.264 330.91 459.194 336.082 451.082L334.395 450.007C329.605 457.521 322.654 461.264 313.412 461.264V463.264ZM336.082 451.082C341.22 443.023 343.709 430.284 343.709 413.045H341.709C341.709 430.181 339.218 442.442 334.395 450.007L336.082 451.082ZM343.709 413.045L343.709 357.527H341.709L341.709 413.045H343.709ZM343.709 357.527C343.709 340.479 341.17 327.836 335.93 319.775L334.253 320.865C339.17 328.43 341.709 340.591 341.709 357.527H343.709ZM335.93 319.775C330.662 311.67 323.017 307.602 313.119 307.602V309.602C322.362 309.602 329.366 313.346 334.253 320.865L335.93 319.775ZM313.119 307.602C303.127 307.602 295.477 311.667 290.303 319.783L291.99 320.858C296.777 313.348 303.775 309.602 313.119 309.602V307.602ZM290.303 319.783C285.166 327.841 282.676 340.481 282.676 357.527H284.676C284.676 340.589 287.166 328.424 291.99 320.858L290.303 319.783ZM282.676 357.527V413.045H284.676V357.527H282.676ZM282.676 413.045C282.676 430.284 285.165 443.023 290.303 451.082L291.99 450.007C287.167 442.442 284.676 430.181 284.676 413.045H282.676ZM290.308 451.09C295.581 459.202 303.328 463.264 313.412 463.264V461.264C303.965 461.264 296.868 457.513 291.985 450L290.308 451.09Z" fill="white"/>
<path d="M286.146 472.375L285.561 472.894L285.563 472.896L286.146 472.375ZM286.001 298.057L285.414 297.539L285.413 297.54L286.001 298.057ZM390.621 298.057L390.034 298.574L390.037 298.578L390.621 298.057ZM390.767 472.375L390.181 471.856L390.181 471.856L390.767 472.375ZM360.355 449.821L359.695 449.401L360.355 449.821ZM316.558 449.821L315.898 450.242L315.901 450.248L316.558 449.821ZM338.675 493.273C316.746 493.273 299.462 486.117 286.73 471.854L285.563 472.896C298.635 487.541 316.37 494.838 338.675 494.838V493.273ZM286.732 471.856C274.004 457.5 267.577 436.424 267.577 408.497H266.011C266.011 436.64 272.486 458.148 285.561 472.894L286.732 471.856ZM267.577 408.497V361.789H266.011V408.497H267.577ZM267.577 361.789C267.577 333.959 273.955 312.93 286.589 298.574L285.413 297.54C272.437 312.285 266.011 333.744 266.011 361.789H267.577ZM286.588 298.574C299.321 284.118 316.556 276.868 338.384 276.868V275.302C316.171 275.302 298.484 282.7 285.414 297.539L286.588 298.574ZM338.384 276.868C360.113 276.868 377.3 284.117 390.034 298.574L391.208 297.539C378.139 282.701 360.501 275.302 338.384 275.302V276.868ZM390.037 298.578C402.862 312.934 409.336 333.962 409.336 361.789H410.902C410.902 333.741 404.378 312.281 391.205 297.535L390.037 298.578ZM409.336 361.789V408.497H410.902V361.789H409.336ZM409.336 408.497C409.336 436.424 402.91 457.5 390.181 471.856L391.352 472.894C404.427 458.148 410.902 436.64 410.902 408.497H409.336ZM390.181 471.856C377.546 486.118 360.408 493.273 338.675 493.273V494.838C360.788 494.838 378.378 487.539 391.352 472.894L390.181 471.856ZM338.675 462.245C348.438 462.245 355.919 458.237 361.015 450.242L359.695 449.401C354.898 456.927 347.925 460.679 338.675 460.679V462.245ZM361.015 450.242C366.086 442.288 368.559 429.685 368.559 412.571H366.994C366.994 429.604 364.519 441.834 359.695 449.401L361.015 450.242ZM368.559 412.571L368.559 357.424H366.994L366.994 412.571H368.559ZM368.559 357.424C368.559 340.501 366.037 327.993 360.866 320.038L359.554 320.891C364.472 328.458 366.994 340.589 366.994 357.424H368.559ZM360.866 320.038C355.673 312.049 348.147 308.042 338.384 308.042V309.607C347.634 309.607 354.658 313.36 359.554 320.891L360.866 320.038ZM338.384 308.042C328.527 308.042 320.996 312.047 315.898 320.044L317.218 320.886C322.014 313.362 329.034 309.607 338.384 309.607V308.042ZM315.898 320.044C310.828 327.997 308.354 340.502 308.354 357.424H309.919C309.919 340.587 312.393 328.453 317.218 320.886L315.898 320.044ZM308.354 357.424V412.571H309.919V357.424H308.354ZM308.354 412.571C308.354 429.685 310.827 442.288 315.898 450.242L317.218 449.401C312.394 441.834 309.919 429.604 309.919 412.571H308.354ZM315.901 450.248C321.098 458.243 328.725 462.245 338.675 462.245V460.679C329.224 460.679 322.106 456.92 317.214 449.395L315.901 450.248Z" fill="white"/>
<path d="M527.75 492V466.365L550.602 461.971V441.023H463.59L461.539 420.076L550.162 278.719H593.229V412.605H617.398V441.023H593.229V461.971L615.934 466.365V492H527.75ZM501.383 412.605H550.602V335.701L549.723 335.408L546.207 341.561L501.383 412.605Z" fill="white"/>
<path d="M527.75 492H526.75V493H527.75V492ZM527.75 466.365L527.561 465.383L526.75 465.539V466.365H527.75ZM550.602 461.971L550.79 462.953L551.602 462.797V461.971H550.602ZM550.602 441.023H551.602V440.023H550.602V441.023ZM463.59 441.023L462.595 441.121L462.683 442.023H463.59V441.023ZM461.539 420.076L460.692 419.545L460.511 419.834L460.544 420.174L461.539 420.076ZM550.162 278.719V277.719H549.609L549.315 278.188L550.162 278.719ZM593.229 278.719H594.229V277.719H593.229V278.719ZM593.229 412.605H592.229V413.605H593.229V412.605ZM617.398 412.605H618.398V411.605H617.398V412.605ZM617.398 441.023V442.023H618.398V441.023H617.398ZM593.229 441.023V440.023H592.229V441.023H593.229ZM593.229 461.971H592.229V462.796L593.038 462.952L593.229 461.971ZM615.934 466.365H616.934V465.54L616.124 465.383L615.934 466.365ZM615.934 492V493H616.934V492H615.934ZM501.383 412.605L500.537 412.072L499.569 413.605H501.383V412.605ZM550.602 412.605V413.605H551.602V412.605H550.602ZM550.602 335.701H551.602V334.98L550.918 334.752L550.602 335.701ZM549.723 335.408L550.039 334.46L549.261 334.2L548.854 334.912L549.723 335.408ZM546.207 341.561L547.053 342.094L547.064 342.076L547.075 342.057L546.207 341.561ZM528.75 492V466.365H526.75V492H528.75ZM527.939 467.347L550.79 462.953L550.413 460.989L527.561 465.383L527.939 467.347ZM551.602 461.971V441.023H549.602V461.971H551.602ZM550.602 440.023H463.59V442.023H550.602V440.023ZM464.585 440.926L462.534 419.979L460.544 420.174L462.595 441.121L464.585 440.926ZM462.386 420.607L551.009 279.25L549.315 278.188L460.692 419.545L462.386 420.607ZM550.162 279.719H593.229V277.719H550.162V279.719ZM592.229 278.719V412.605H594.229V278.719H592.229ZM593.229 413.605H617.398V411.605H593.229V413.605ZM616.398 412.605V441.023H618.398V412.605H616.398ZM617.398 440.023H593.229V442.023H617.398V440.023ZM592.229 441.023V461.971H594.229V441.023H592.229ZM593.038 462.952L615.744 467.347L616.124 465.383L593.419 460.989L593.038 462.952ZM614.934 466.365V492H616.934V466.365H614.934ZM615.934 491H527.75V493H615.934V491ZM501.383 413.605H550.602V411.605H501.383V413.605ZM551.602 412.605V335.701H549.602V412.605H551.602ZM550.918 334.752L550.039 334.46L549.406 336.357L550.285 336.65L550.918 334.752ZM548.854 334.912L545.339 341.064L547.075 342.057L550.591 335.904L548.854 334.912ZM545.361 341.027L500.537 412.072L502.229 413.139L547.053 342.094L545.361 341.027Z" fill="white"/>
<path d="M553.109 491H552.327V491.783H553.109V491ZM553.109 465.536L552.962 464.768L552.327 464.89V465.536H553.109ZM575.809 461.171L575.956 461.94L576.591 461.817V461.171H575.809ZM575.809 440.363H576.591V439.581H575.809V440.363ZM489.377 440.363L488.598 440.44L488.667 441.146H489.377V440.363ZM487.34 419.556L486.677 419.14L486.535 419.366L486.561 419.632L487.34 419.556ZM575.372 279.141V278.358H574.939L574.709 278.725L575.372 279.141ZM618.151 279.141H618.934V278.358H618.151V279.141ZM618.151 412.135H617.369V412.917H618.151V412.135ZM642.16 412.135H642.943V411.352H642.16V412.135ZM642.16 440.363V441.146H642.943V440.363H642.16ZM618.151 440.363V439.581H617.369V440.363H618.151ZM618.151 461.171H617.369V461.817L618.003 461.939L618.151 461.171ZM640.705 465.536H641.488V464.89L640.854 464.768L640.705 465.536ZM640.705 491V491.783H641.488V491H640.705ZM526.918 412.135L526.256 411.717L525.499 412.917H526.918V412.135ZM575.809 412.135V412.917H576.591V412.135H575.809ZM575.809 335.743H576.591V335.179L576.056 335.001L575.809 335.743ZM574.936 335.452L575.183 334.71L574.574 334.507L574.256 335.064L574.936 335.452ZM571.443 341.563L572.105 341.981L572.114 341.967L572.123 341.952L571.443 341.563ZM553.892 491V465.536H552.327V491H553.892ZM553.257 466.305L575.956 461.94L575.661 460.402L552.962 464.768L553.257 466.305ZM576.591 461.171V440.363H575.026V461.171H576.591ZM575.809 439.581H489.377V441.146H575.809V439.581ZM490.156 440.287L488.119 419.479L486.561 419.632L488.598 440.44L490.156 440.287ZM488.003 419.971L576.035 279.556L574.709 278.725L486.677 419.14L488.003 419.971ZM575.372 279.923H618.151V278.358H575.372V279.923ZM617.369 279.141V412.135H618.934V279.141H617.369ZM618.151 412.917H642.16V411.352H618.151V412.917ZM641.377 412.135V440.363H642.943V412.135H641.377ZM642.16 439.581H618.151V441.146H642.16V439.581ZM617.369 440.363V461.171H618.934V440.363H617.369ZM618.003 461.939L640.556 466.305L640.854 464.768L618.3 460.402L618.003 461.939ZM639.922 465.536V491H641.488V465.536H639.922ZM640.705 490.217H553.109V491.783H640.705V490.217ZM526.918 412.917H575.809V411.352H526.918V412.917ZM576.591 412.135V335.743H575.026V412.135H576.591ZM576.056 335.001L575.183 334.71L574.688 336.195L575.561 336.486L576.056 335.001ZM574.256 335.064L570.764 341.175L572.123 341.952L575.615 335.84L574.256 335.064ZM570.781 341.146L526.256 411.717L527.58 412.552L572.105 341.981L570.781 341.146Z" fill="white"/>
<path d="M169.576 563.52C170.771 563.52 171.848 563.637 172.808 563.872C173.789 564.085 174.685 564.395 175.496 564.8L174.6 567.808C173.725 567.381 172.893 567.061 172.104 566.848C171.315 566.635 170.536 566.528 169.768 566.528C168.68 566.528 167.827 566.752 167.208 567.2C166.611 567.648 166.312 568.256 166.312 569.024C166.312 569.771 166.557 570.347 167.048 570.752C167.56 571.136 168.371 571.509 169.48 571.872L171.432 572.512C173.096 573.067 174.365 573.835 175.24 574.816C176.115 575.797 176.552 576.96 176.552 578.304C176.552 579.179 176.381 579.979 176.04 580.704C175.699 581.429 175.208 582.069 174.568 582.624C173.928 583.157 173.139 583.573 172.2 583.872C171.283 584.171 170.237 584.32 169.064 584.32C167.912 584.32 166.792 584.213 165.704 584C164.616 583.765 163.571 583.403 162.568 582.912L163.464 579.936C164.381 580.384 165.277 580.725 166.152 580.96C167.027 581.195 167.944 581.312 168.904 581.312C170.056 581.312 170.952 581.088 171.592 580.64C172.253 580.192 172.584 579.541 172.584 578.688C172.584 578.389 172.531 578.101 172.424 577.824C172.317 577.547 172.125 577.291 171.848 577.056C171.592 576.8 171.229 576.565 170.76 576.352C170.312 576.117 169.725 575.883 169 575.648L167.208 575.04C165.736 574.528 164.552 573.856 163.656 573.024C162.781 572.171 162.344 570.976 162.344 569.44C162.344 567.669 162.963 566.24 164.2 565.152C165.437 564.064 167.229 563.52 169.576 563.52ZM180.18 563.84H192.98V566.912H184.084V572H192.148V575.04H184.084V580.928H193.076V584H180.18V563.84ZM200.459 563.84V584H196.555V563.84H200.459ZM218.654 563.84V566.976H212.734V584H208.83V566.976H203.07V563.84H218.654ZM221.274 563.84H234.074V566.912H225.178V572H233.242V575.04H225.178V580.928H234.17V584H221.274V563.84ZM244.93 563.84H248.45L256.13 575.168C256.556 575.808 256.951 576.448 257.314 577.088C257.676 577.707 257.964 578.219 258.178 578.624H258.242C258.114 577.152 258.05 575.68 258.05 574.208C258.05 572.715 258.05 571.232 258.05 569.76V563.84H261.73V584H258.21L250.882 573.28C250.391 572.555 249.922 571.797 249.474 571.008C249.047 570.219 248.716 569.579 248.482 569.088H248.418C248.524 570.667 248.578 572.203 248.578 573.696C248.599 575.168 248.61 576.672 248.61 578.208V584H244.93V563.84ZM270.303 563.84V584H266.399V563.84H270.303ZM284.498 581.248C285.5 581.248 286.343 581.163 287.026 580.992C287.708 580.821 288.327 580.587 288.882 580.288L289.714 583.232C289.116 583.531 288.359 583.787 287.442 584C286.524 584.213 285.404 584.32 284.082 584.32C282.631 584.32 281.276 584.085 280.018 583.616C278.78 583.147 277.703 582.475 276.786 581.6C275.89 580.704 275.186 579.616 274.674 578.336C274.162 577.035 273.906 575.563 273.906 573.92C273.906 572.32 274.151 570.88 274.642 569.6C275.132 568.299 275.826 567.2 276.722 566.304C277.639 565.408 278.727 564.725 279.986 564.256C281.244 563.765 282.642 563.52 284.178 563.52C285.543 563.52 286.663 563.637 287.538 563.872C288.412 564.107 289.159 564.384 289.778 564.704L288.882 567.648C288.242 567.328 287.591 567.072 286.93 566.88C286.268 566.688 285.5 566.592 284.626 566.592C283.73 566.592 282.876 566.731 282.066 567.008C281.276 567.264 280.583 567.691 279.986 568.288C279.41 568.864 278.94 569.621 278.578 570.56C278.236 571.477 278.066 572.597 278.066 573.92C278.066 575.2 278.236 576.309 278.578 577.248C278.919 578.165 279.378 578.923 279.954 579.52C280.53 580.117 281.202 580.555 281.97 580.832C282.759 581.109 283.602 581.248 284.498 581.248ZM293.055 584V563.84H296.959V572H305.247V563.84H309.151V584H305.247V575.136H296.959V584H293.055ZM327.373 563.84V566.976H321.453V584H317.549V566.976H311.789V563.84H327.373ZM346.65 563.52C347.866 563.52 348.954 563.616 349.914 563.808C350.895 564 351.78 564.288 352.569 564.672L351.738 567.424C350.991 567.061 350.223 566.805 349.434 566.656C348.644 566.485 347.844 566.4 347.034 566.4C346.138 566.4 345.284 566.539 344.474 566.816C343.684 567.093 342.98 567.541 342.362 568.16C341.764 568.757 341.284 569.536 340.922 570.496C340.58 571.435 340.41 572.587 340.41 573.952C340.41 576.363 340.943 578.208 342.01 579.488C343.098 580.768 344.644 581.408 346.65 581.408C347.908 581.408 348.89 581.269 349.594 580.992V576H346.106V573.056H353.306V583.104C352.452 583.467 351.482 583.765 350.394 584C349.306 584.213 348.058 584.32 346.65 584.32C345.199 584.32 343.834 584.096 342.554 583.648C341.295 583.2 340.196 582.539 339.258 581.664C338.319 580.789 337.583 579.712 337.049 578.432C336.516 577.131 336.25 575.637 336.25 573.952C336.25 572.267 336.516 570.773 337.049 569.472C337.583 568.171 338.308 567.083 339.226 566.208C340.164 565.312 341.263 564.64 342.522 564.192C343.802 563.744 345.178 563.52 346.65 563.52ZM357.336 563.84H370.136V566.912H361.24V572H369.304V575.04H361.24V580.928H370.232V584H357.336V563.84ZM386.191 563.84V566.912H377.615V572.64H385.487V575.68H377.615V584H373.711V563.84H386.191ZM389.364 563.84H393.268V575.904C393.268 577.76 393.61 579.125 394.292 580C394.996 580.853 396.116 581.28 397.652 581.28C399.167 581.28 400.266 580.821 400.948 579.904C401.631 578.965 401.972 577.76 401.972 576.288V563.84H405.876V576.032C405.876 578.827 405.172 580.907 403.764 582.272C402.356 583.637 400.319 584.32 397.652 584.32C396.351 584.32 395.188 584.16 394.164 583.84C393.14 583.499 392.266 582.987 391.54 582.304C390.836 581.6 390.292 580.715 389.908 579.648C389.546 578.581 389.364 577.323 389.364 575.872V563.84ZM410.43 563.84H413.95L421.63 575.168C422.056 575.808 422.451 576.448 422.814 577.088C423.176 577.707 423.464 578.219 423.678 578.624H423.742C423.614 577.152 423.55 575.68 423.55 574.208C423.55 572.715 423.55 571.232 423.55 569.76V563.84H427.23V584H423.71L416.382 573.28C415.891 572.555 415.422 571.797 414.974 571.008C414.547 570.219 414.216 569.579 413.982 569.088H413.918C414.024 570.667 414.078 572.203 414.078 573.696C414.099 575.168 414.11 576.672 414.11 578.208V584H410.43V563.84ZM438.779 563.84C440.293 563.84 441.68 564.043 442.939 564.448C444.197 564.853 445.275 565.461 446.171 566.272C447.088 567.083 447.792 568.096 448.283 569.312C448.795 570.507 449.051 571.904 449.051 573.504C449.051 575.36 448.752 576.96 448.155 578.304C447.557 579.627 446.747 580.715 445.722 581.568C444.699 582.4 443.504 583.019 442.139 583.424C440.795 583.808 439.355 584 437.819 584H431.899V563.84H438.779ZM435.803 580.928H437.531C438.469 580.928 439.376 580.821 440.251 580.608C441.147 580.373 441.936 579.979 442.619 579.424C443.301 578.869 443.845 578.112 444.251 577.152C444.677 576.192 444.891 574.976 444.891 573.504C444.891 571.371 444.283 569.739 443.067 568.608C441.872 567.477 440.251 566.912 438.203 566.912H435.803V580.928ZM452.711 563.84H465.511V566.912H456.615V572H464.679V575.04H456.615V580.928H465.607V584H452.711V563.84ZM469.086 563.84H472.606L480.286 575.168C480.713 575.808 481.107 576.448 481.47 577.088C481.833 577.707 482.121 578.219 482.334 578.624H482.398C482.27 577.152 482.206 575.68 482.206 574.208C482.206 572.715 482.206 571.232 482.206 569.76V563.84H485.886V584H482.366L475.038 573.28C474.547 572.555 474.078 571.797 473.63 571.008C473.203 570.219 472.873 569.579 472.638 569.088H472.574C472.681 570.667 472.734 572.203 472.734 573.696C472.755 575.168 472.766 576.672 472.766 578.208V584H469.086V563.84Z" fill="white"/>
<path d="M262.77 71.5L262.281 75.1133C261.63 79.638 260.426 84 258.668 88.1992C256.91 92.3984 254.599 96.1582 251.734 99.4785C248.87 102.766 245.468 105.37 241.529 107.291C237.59 109.179 233.115 110.074 228.102 109.977C223.316 109.879 219.28 108.837 215.992 106.852C212.704 104.833 210.1 102.164 208.18 98.8438C206.292 95.5234 205.022 91.8288 204.371 87.7598C203.753 83.6582 203.704 79.5078 204.225 75.3086L204.713 71.6465C205.364 67.1543 206.585 62.8249 208.375 58.6582C210.165 54.459 212.493 50.7155 215.357 47.4277C218.222 44.1074 221.624 41.5033 225.562 39.6152C229.534 37.7272 233.993 36.832 238.941 36.9297C243.727 36.9948 247.763 38.0365 251.051 40.0547C254.339 42.0404 256.926 44.6934 258.814 48.0137C260.702 51.334 261.956 55.0286 262.574 59.0977C263.225 63.1667 263.29 67.3008 262.77 71.5ZM249.049 75.3086L249.537 71.5C249.83 69.1563 249.977 66.6497 249.977 63.9805C249.977 61.2786 249.635 58.7233 248.951 56.3145C248.268 53.873 247.079 51.8711 245.387 50.3086C243.694 48.7135 241.301 47.8509 238.209 47.7207C234.954 47.5905 232.138 48.2415 229.762 49.6738C227.385 51.0736 225.383 52.9779 223.756 55.3867C222.161 57.763 220.891 60.3672 219.947 63.1992C219.036 66.0312 218.385 68.8145 217.994 71.5488L217.506 75.3574C217.213 77.6361 217.066 80.1263 217.066 82.8281C217.066 85.5299 217.408 88.1178 218.092 90.5918C218.775 93.0332 219.964 95.0677 221.656 96.6953C223.349 98.2904 225.742 99.1367 228.834 99.2344C232.122 99.3646 234.954 98.7135 237.33 97.2812C239.706 95.849 241.692 93.9447 243.287 91.5684C244.882 89.1595 246.152 86.5391 247.096 83.707C248.04 80.8424 248.691 78.043 249.049 75.3086ZM268.775 83.4141L268.922 82.3887C269.312 78.6777 270.208 75.1784 271.607 71.8906C273.04 68.5703 274.911 65.6406 277.223 63.1016C279.566 60.5625 282.333 58.5931 285.523 57.1934C288.746 55.7611 292.327 55.0938 296.266 55.1914C300.042 55.2565 303.297 56.0378 306.031 57.5352C308.798 59 311.044 60.9857 312.77 63.4922C314.527 65.9661 315.748 68.7982 316.432 71.9883C317.148 75.1458 317.343 78.4824 317.018 81.998L316.92 83.0723C316.497 86.7507 315.569 90.2337 314.137 93.5215C312.704 96.7767 310.816 99.6576 308.473 102.164C306.129 104.671 303.362 106.624 300.172 108.023C296.982 109.423 293.434 110.074 289.527 109.977C285.784 109.911 282.529 109.146 279.762 107.682C277.027 106.217 274.781 104.264 273.023 101.822C271.298 99.3483 270.077 96.5326 269.361 93.375C268.678 90.2174 268.482 86.8971 268.775 83.4141ZM281.471 82.3887L281.373 83.4629C281.243 85.123 281.21 86.8971 281.275 88.7852C281.373 90.6732 281.715 92.4473 282.301 94.1074C282.887 95.7676 283.814 97.1348 285.084 98.209C286.354 99.2507 288.062 99.804 290.211 99.8691C292.522 99.9342 294.508 99.4785 296.168 98.502C297.861 97.4928 299.26 96.1582 300.367 94.498C301.474 92.8053 302.353 90.9499 303.004 88.9316C303.655 86.9134 304.094 84.944 304.322 83.0234L304.42 81.998C304.583 80.3379 304.615 78.5475 304.518 76.627C304.42 74.7064 304.078 72.916 303.492 71.2559C302.906 69.5632 301.979 68.1797 300.709 67.1055C299.439 65.9987 297.714 65.4128 295.533 65.3477C293.222 65.25 291.22 65.722 289.527 66.7637C287.867 67.8053 286.484 69.1725 285.377 70.8652C284.27 72.5579 283.391 74.4297 282.74 76.4805C282.122 78.4987 281.699 80.4681 281.471 82.3887ZM341.188 67.0566L330.348 129.313H317.75L330.445 56.168H342.066L341.188 67.0566ZM371.412 81.7539L371.266 82.7793C370.908 85.9694 370.175 89.1921 369.068 92.4473C367.962 95.6699 366.448 98.6322 364.527 101.334C362.639 104.003 360.312 106.152 357.545 107.779C354.778 109.374 351.523 110.123 347.779 110.025C344.492 109.928 341.741 109.098 339.527 107.535C337.314 105.973 335.556 103.938 334.254 101.432C332.984 98.9251 332.089 96.207 331.568 93.2773C331.048 90.3477 330.852 87.4831 330.982 84.6836L331.373 81.3633C331.894 78.3685 332.757 75.3086 333.961 72.1836C335.198 69.0586 336.793 66.194 338.746 63.5898C340.699 60.9857 343.027 58.9023 345.729 57.3398C348.43 55.7773 351.539 55.0449 355.055 55.1426C358.668 55.2402 361.614 56.1029 363.893 57.7305C366.204 59.3581 367.945 61.474 369.117 64.0781C370.322 66.6823 371.07 69.5306 371.363 72.623C371.689 75.7155 371.705 78.7591 371.412 81.7539ZM358.668 82.7305L358.814 81.6563C358.977 80.1263 359.042 78.4499 359.01 76.627C358.977 74.7715 358.733 73.0137 358.277 71.3535C357.822 69.6608 357.024 68.2611 355.885 67.1543C354.745 66.0475 353.118 65.4616 351.002 65.3965C349.016 65.2988 347.242 65.6243 345.68 66.373C344.117 67.0892 342.766 68.0983 341.627 69.4004C340.488 70.6699 339.544 72.1348 338.795 73.7949C338.079 75.4225 337.558 77.1152 337.232 78.873L336.012 87.0762C335.882 89.1595 336.093 91.1615 336.646 93.082C337.2 95.0026 338.16 96.5977 339.527 97.8672C340.927 99.1367 342.799 99.804 345.143 99.8691C347.421 99.9017 349.358 99.3971 350.953 98.3555C352.581 97.3138 353.915 95.9303 354.957 94.2051C356.031 92.4473 356.861 90.5592 357.447 88.541C358.033 86.5228 358.44 84.5859 358.668 82.7305ZM406.959 94.2539C407.219 92.5938 406.829 91.3079 405.787 90.3965C404.745 89.4525 403.443 88.7363 401.881 88.248C400.351 87.7598 398.984 87.3691 397.779 87.0762C395.826 86.5553 393.857 85.9043 391.871 85.123C389.918 84.3418 388.128 83.3652 386.5 82.1934C384.905 80.9889 383.635 79.5241 382.691 77.7988C381.747 76.0736 381.324 74.0228 381.422 71.6465C381.552 68.847 382.268 66.4219 383.57 64.3711C384.905 62.2878 386.614 60.5625 388.697 59.1953C390.813 57.8281 393.124 56.8027 395.631 56.1191C398.137 55.4355 400.644 55.1263 403.15 55.1914C406.601 55.224 409.791 55.875 412.721 57.1445C415.683 58.4141 418.059 60.3021 419.85 62.8086C421.673 65.3151 422.568 68.4076 422.535 72.0859L410.035 72.0371C410.1 70.5072 409.84 69.1725 409.254 68.0332C408.701 66.8939 407.87 66.0313 406.764 65.4453C405.657 64.8268 404.29 64.5013 402.662 64.4688C401.295 64.4688 399.944 64.7129 398.609 65.2012C397.307 65.6895 396.184 66.4219 395.24 67.3984C394.296 68.375 393.71 69.5957 393.482 71.0605C393.287 72.2324 393.45 73.209 393.971 73.9902C394.524 74.7389 395.257 75.3411 396.168 75.7969C397.112 76.2526 398.105 76.627 399.146 76.9199C400.188 77.2129 401.132 77.457 401.979 77.6523C404.778 78.3685 407.529 79.3125 410.23 80.4844C412.932 81.6563 415.13 83.2839 416.822 85.3672C418.548 87.4505 419.345 90.2012 419.215 93.6191C419.085 96.5163 418.303 99.0228 416.871 101.139C415.439 103.222 413.6 104.931 411.354 106.266C409.14 107.568 406.715 108.512 404.078 109.098C401.474 109.716 398.919 110.009 396.412 109.977C392.896 109.911 389.592 109.195 386.5 107.828C383.44 106.461 380.966 104.475 379.078 101.871C377.19 99.2669 376.246 96.0768 376.246 92.3008L388.209 92.3496C388.242 94.14 388.6 95.6536 389.283 96.8906C389.999 98.1276 391.008 99.0716 392.311 99.7227C393.645 100.341 395.191 100.65 396.949 100.65C398.382 100.683 399.814 100.504 401.246 100.113C402.678 99.6901 403.915 99.0065 404.957 98.0625C405.999 97.0859 406.666 95.8164 406.959 94.2539ZM452.467 37.9063L442.457 87.6621H431.812L439.088 37.9063L452.467 37.9063ZM427.418 103.189C427.418 101.139 428.102 99.4622 429.469 98.1602C430.868 96.8255 432.577 96.1419 434.596 96.1094C436.516 96.0768 438.16 96.6953 439.527 97.9648C440.927 99.2018 441.643 100.797 441.676 102.75C441.676 104.768 440.976 106.445 439.576 107.779C438.209 109.114 436.533 109.781 434.547 109.781C432.594 109.814 430.934 109.228 429.566 108.023C428.199 106.786 427.483 105.175 427.418 103.189Z" fill="white"/>
<path d="M298.8 175.88V177.704H292.128V182.6H298.272V184.4H292.128V191H289.92V175.88H298.8ZM301.568 175.88H310.688V177.704H303.776V182.24H310.064V184.04H303.776V189.176H310.76V191H301.568V175.88ZM313.592 191V175.88H315.8V182.24H322.976V175.88H325.184V191H322.976V184.112H315.8V191H313.592ZM328.99 175.88H331.198V189.128H337.654V191H328.99V175.88ZM339.936 175.88H349.056V177.704H342.144V182.24H348.432V184.04H342.144V189.176H349.128V191H339.936V175.88ZM351.959 175.88H356.879C357.663 175.88 358.351 175.992 358.943 176.216C359.551 176.44 360.055 176.752 360.455 177.152C360.855 177.552 361.159 178.032 361.367 178.592C361.575 179.136 361.679 179.736 361.679 180.392C361.679 180.968 361.591 181.488 361.415 181.952C361.239 182.416 361.007 182.824 360.719 183.176C360.431 183.512 360.095 183.808 359.711 184.064C359.343 184.304 358.967 184.504 358.583 184.664L362.567 191H360.095L356.519 185.072H354.047V191H351.959V175.88ZM354.047 183.272H355.871C356.367 183.272 356.823 183.224 357.239 183.128C357.671 183.016 358.039 182.856 358.343 182.648C358.663 182.424 358.911 182.136 359.087 181.784C359.279 181.432 359.375 181.008 359.375 180.512C359.375 179.536 359.103 178.816 358.559 178.352C358.031 177.888 357.255 177.656 356.231 177.656H354.047V183.272Z" fill="white"/>
</svg>
