<svg width="135" height="40" viewBox="0 0 135 40" fill="none" xmlns="http://www.w3.org/2000/svg">
<path d="M65.5321 14.3367C66.5852 13.7825 67.2504 12.7848 67.2504 11.4915C67.2504 9.47761 65.5876 8.12887 62.3543 8.12887H56.0356V21.0619H62.7238C66.1233 21.0619 67.897 19.7686 67.897 17.533C67.897 15.9072 66.9732 14.7986 65.5321 14.3367ZM61.9848 10.3829C63.4444 10.3829 64.2388 10.8818 64.2388 11.8979C64.2388 12.9141 63.4444 13.4314 61.9848 13.4314H59.0102V10.3829H61.9848ZM62.5021 18.8079H59.0102V15.6116H62.5021C64.0541 15.6116 64.8855 16.1289 64.8855 17.2189C64.8855 18.3275 64.0541 18.8079 62.5021 18.8079Z" fill="white"/>
<path d="M79.6965 16.1289C79.6965 12.9326 77.4425 10.9741 74.5233 10.9741C71.4933 10.9741 69.2208 13.1173 69.2208 16.0919C69.2208 19.048 71.4563 21.2097 74.8928 21.2097C76.685 21.2097 78.0707 20.6554 78.9945 19.6023L77.461 17.9395C76.7774 18.5862 76.0199 18.9002 74.9667 18.9002C73.4517 18.9002 72.3986 18.1427 72.1215 16.9049H79.6411C79.6596 16.6647 79.6965 16.3506 79.6965 16.1289ZM74.5418 13.1543C75.8351 13.1543 76.7774 13.9672 76.9806 15.2236H72.0845C72.2878 13.9487 73.23 13.1543 74.5418 13.1543Z" fill="white"/>
<path d="M84.3683 12.4337V11.1219H81.6154V21.0619H84.4976V16.3691C84.4976 14.4661 85.5507 13.5977 87.1397 13.5977C87.3614 13.5977 87.5461 13.6162 87.7863 13.6346V10.9741C86.2528 10.9741 85.0704 11.473 84.3683 12.4337Z" fill="white"/>
<path d="M89.5001 21.0619H92.3823V7.35289H89.5001V21.0619Z" fill="white"/>
<path d="M96.4983 9.73627C97.5699 9.73627 98.2905 9.03419 98.2905 8.07345C98.2905 7.18661 97.5699 6.52148 96.4983 6.52148C95.4268 6.52148 94.7062 7.22356 94.7062 8.12887C94.7062 9.03419 95.4268 9.73627 96.4983 9.73627ZM95.0572 21.0619H97.9395V11.1219H95.0572V21.0619Z" fill="white"/>
<path d="M106.656 10.9741C105.307 10.9741 104.143 11.436 103.367 12.2859V11.1219H100.614V21.0619H103.497V16.1474C103.497 14.3183 104.494 13.4684 105.88 13.4684C107.155 13.4684 107.894 14.2074 107.894 15.8148V21.0619H110.776V15.3714C110.776 12.3413 109.002 10.9741 106.656 10.9741Z" fill="white"/>
<path d="M120.797 21.0619H124.289L119.781 15.3344L123.92 11.1219H120.483L116.271 15.1127V7.35289H113.389V21.0619H116.271V18.5307L117.657 17.1635L120.797 21.0619Z" fill="white"/>
<path d="M129.414 10.9741C127.825 10.9741 126.218 11.3991 125.128 12.1751L126.163 14.1889C126.883 13.6162 127.973 13.2651 129.026 13.2651C130.578 13.2651 131.317 13.9857 131.317 15.2236H129.026C125.996 15.2236 124.758 16.443 124.758 18.1982C124.758 19.9164 126.144 21.2097 128.472 21.2097C129.932 21.2097 130.966 20.7293 131.502 19.824V21.0619H134.2V15.3898C134.2 12.3783 132.444 10.9741 129.414 10.9741ZM129.193 19.2698C128.176 19.2698 127.567 18.7894 127.567 18.0688C127.567 17.4037 127.992 16.9049 129.34 16.9049H131.317V17.921C130.985 18.8263 130.153 19.2698 129.193 19.2698Z" fill="white"/>
<path d="M64.7746 33.145C64.0171 33.5515 63.2596 33.6993 62.4467 33.6993C59.9709 33.6993 58.2527 31.9811 58.2527 29.5607C58.2527 27.1035 59.9709 25.4222 62.4836 25.4222C63.7954 25.4222 64.8855 25.8841 65.8277 26.8818L67.7492 25.1081C66.4929 23.6485 64.6083 22.8725 62.3358 22.8725C58.2157 22.8725 55.2227 25.6624 55.2227 29.5607C55.2227 33.4591 58.2157 36.249 62.2804 36.249C64.128 36.249 66.0864 35.6762 67.509 34.6046V29.3575H64.7746V33.145Z" fill="white"/>
<path d="M72.839 27.3991V26.0873H70.0861V36.0273H72.9683V31.3344C72.9683 29.4314 74.0214 28.5631 75.6104 28.5631C75.8321 28.5631 76.0168 28.5815 76.257 28.6V25.9395C74.7235 25.9395 73.5411 26.4383 72.839 27.3991Z" fill="white"/>
<path d="M82.6104 36.1751C85.7697 36.1751 88.0607 34.0504 88.0607 31.0573C88.0607 28.0642 85.7697 25.9395 82.6104 25.9395C79.451 25.9395 77.1415 28.0642 77.1415 31.0573C77.1415 34.0504 79.451 36.1751 82.6104 36.1751ZM82.6104 33.8102C81.1693 33.8102 80.0607 32.7755 80.0607 31.0573C80.0607 29.339 81.1693 28.3044 82.6104 28.3044C84.0515 28.3044 85.1415 29.339 85.1415 31.0573C85.1415 32.7755 84.0515 33.8102 82.6104 33.8102Z" fill="white"/>
<path d="M97.1189 26.0873V31.0019C97.1189 32.831 96.1581 33.6808 94.8279 33.6808C93.5531 33.6808 92.814 32.9418 92.814 31.279V26.0873H89.9318V31.7039C89.9318 34.7709 91.687 36.1751 94.1812 36.1751C95.4006 36.1751 96.5092 35.7132 97.2667 34.8448V36.0273H100.001V26.0873H97.1189Z" fill="white"/>
<path d="M108.547 25.9395C107.216 25.9395 106.145 26.3644 105.424 27.2328V26.0873H102.671V39.6116H105.553V34.9741C106.293 35.7871 107.309 36.1751 108.547 36.1751C111.336 36.1751 113.498 34.1797 113.498 31.0573C113.498 27.9349 111.336 25.9395 108.547 25.9395ZM108.048 33.8102C106.607 33.8102 105.517 32.7755 105.517 31.0573C105.517 29.339 106.607 28.3044 108.048 28.3044C109.489 28.3044 110.579 29.339 110.579 31.0573C110.579 32.7755 109.489 33.8102 108.048 33.8102Z" fill="white"/>
<path fill-rule="evenodd" clip-rule="evenodd" d="M21.0042 17.0589V21.6337H21.0084V40H5.97908C4.39807 40.0019 2.8796 39.3831 1.75106 38.2768C0.630045 37.1737 1.18611e-06 35.6779 1.18611e-06 34.1179V24.7063C-0.00058391 23.7918 0.215305 22.89 0.630045 22.0747C1.04701 21.2555 1.6499 20.545 2.39058 20C1.6499 19.455 1.04701 18.7445 0.630045 17.9253C0.214933 17.1084 1.18611e-06 16.2074 1.18611e-06 15.2937V5.88211C0.000968281 5.1078 0.156097 4.34143 0.456357 3.6276C0.756616 2.91377 1.19601 2.26675 1.74895 1.72421C2.87655 0.618345 4.39375 -0.00083887 5.97382 8.52995e-07H21.0042V14.84H14.9524V5.88211H5.97908V14.7158C5.97954 15.0244 6.04145 15.3298 6.16119 15.6142C6.28093 15.8987 6.45612 16.1565 6.67656 16.3726C7.12328 16.8126 7.72909 17.0589 8.36123 17.0589H21.0042ZM14.9524 34.1179H5.97908V25.2842C5.97954 24.9756 6.04145 24.6702 6.16119 24.3858C6.28093 24.1013 6.45612 23.8435 6.67656 23.6274C7.12328 23.1884 7.72909 22.9411 8.36123 22.9411H14.9524V34.1179ZM33.486 17.059V22.9411V22.9421H38.2693V34.1158H29.3012V5.88316H38.2693V14.8411H44.2494V5.88316C44.2485 5.10836 44.0931 4.3415 43.7925 3.62728C43.4919 2.91306 43.052 2.26578 42.4984 1.72316C41.3696 0.61666 39.8507 -0.00221939 38.2693 6.83836e-06H23.2452V40H38.2693C39.8506 40.0014 41.3691 39.3818 42.4973 38.2747C43.0508 37.7322 43.4906 37.0851 43.7913 36.3711C44.0919 35.6571 44.2473 34.8904 44.2484 34.1158V17.059H33.486Z" fill="white"/>
</svg>
