<svg width="40" height="40" viewBox="0 0 40 40" fill="none" xmlns="http://www.w3.org/2000/svg">
<g clip-path="url(#clip0_1_4099)">
<path d="M38.3333 18.334H1.66667C0.746192 18.334 0 19.0802 0 20.0007C0 20.9211 0.746192 21.6673 1.66667 21.6673H38.3333C39.2538 21.6673 40 20.9211 40 20.0007C40 19.0802 39.2538 18.334 38.3333 18.334Z" fill="white"/>
<path d="M38.3333 6.66602H1.66667C0.746192 6.66602 0 7.41221 0 8.33268C0 9.25316 0.746192 9.99935 1.66667 9.99935H38.3333C39.2538 9.99935 40 9.25316 40 8.33268C40 7.41221 39.2538 6.66602 38.3333 6.66602Z" fill="white"/>
<path d="M38.3333 30H1.66667C0.746192 30 0 30.7462 0 31.6667C0 32.5871 0.746192 33.3333 1.66667 33.3333H38.3333C39.2538 33.3333 40 32.5871 40 31.6667C40 30.7462 39.2538 30 38.3333 30Z" fill="white"/>
</g>
<defs>
<clipPath id="clip0_1_4099">
<rect width="40" height="40" fill="white"/>
</clipPath>
</defs>
</svg>
