<svg width="40" height="40" viewBox="0 0 40 40" fill="none" xmlns="http://www.w3.org/2000/svg">
<path d="M21.668 5V1.66667C21.668 1.22464 21.4924 0.800716 21.1798 0.488155C20.8673 0.175595 20.4433 0 20.0013 0C19.5593 0 19.1354 0.175595 18.8228 0.488155C18.5102 0.800716 18.3346 1.22464 18.3346 1.66667V5C15.2415 5.00353 12.2761 6.23383 10.089 8.42099C7.90179 10.6081 6.6715 13.5736 6.66797 16.6667V26.6667C6.66797 30.2029 8.07273 33.5943 10.5732 36.0948C13.0737 38.5952 16.4651 40 20.0013 40C23.5375 40 26.9289 38.5952 29.4294 36.0948C31.9299 33.5943 33.3346 30.2029 33.3346 26.6667V16.6667C33.3311 13.5736 32.1008 10.6081 29.9136 8.42099C27.7265 6.23383 24.7611 5.00353 21.668 5ZM30.0013 26.6667C30.0013 29.3188 28.9477 31.8624 27.0724 33.7377C25.197 35.6131 22.6535 36.6667 20.0013 36.6667C17.3491 36.6667 14.8056 35.6131 12.9302 33.7377C11.0549 31.8624 10.0013 29.3188 10.0013 26.6667V16.6667C10.0039 14.4573 10.8828 12.3393 12.445 10.777C14.0072 9.2148 16.1253 8.33598 18.3346 8.33333H21.668C23.8773 8.33598 25.9954 9.2148 27.5576 10.777C29.1198 12.3393 29.9987 14.4573 30.0013 16.6667V26.6667Z" fill="white"/>
<path d="M19.9987 11.666C19.5567 11.666 19.1327 11.8416 18.8202 12.1542C18.5076 12.4667 18.332 12.8907 18.332 13.3327V16.666C18.332 17.108 18.5076 17.532 18.8202 17.8445C19.1327 18.1571 19.5567 18.3327 19.9987 18.3327C20.4407 18.3327 20.8646 18.1571 21.1772 17.8445C21.4898 17.532 21.6654 17.108 21.6654 16.666V13.3327C21.6654 12.8907 21.4898 12.4667 21.1772 12.1542C20.8646 11.8416 20.4407 11.666 19.9987 11.666Z" fill="white"/>
</svg>
