<svg width="80" height="80" viewBox="0 0 80 80" fill="none" xmlns="http://www.w3.org/2000/svg">
<g clip-path="url(#clip0_1_3722)">
<path d="M61.938 7.13414L41.0546 0.170803C40.3709 -0.0569342 39.6317 -0.0569342 38.948 0.170803L18.0646 7.13414C14.7443 8.23707 11.856 10.3583 9.81012 13.1965C7.76422 16.0347 6.66476 19.4454 6.66798 22.9441V40.0008C6.66798 65.2108 37.3346 79.1341 38.648 79.7141C39.074 79.9034 39.5351 80.0012 40.0013 80.0012C40.4675 80.0012 40.9286 79.9034 41.3546 79.7141C42.668 79.1341 73.3346 65.2108 73.3346 40.0008V22.9441C73.3378 19.4454 72.2384 16.0347 70.1925 13.1965C68.1466 10.3583 65.2583 8.23707 61.938 7.13414ZM55.728 32.3908L41.488 46.6308C40.9052 47.2174 40.2118 47.6825 39.4479 47.9989C38.684 48.3153 37.8648 48.4769 37.038 48.4741H36.928C36.0843 48.4612 35.252 48.2773 34.4814 47.9336C33.7108 47.5898 33.0179 47.0933 32.4446 46.4741L24.758 38.4741C24.4251 38.1653 24.1588 37.7917 23.9755 37.3762C23.7922 36.9607 23.6957 36.5122 23.6919 36.0581C23.6882 35.604 23.7772 35.154 23.9536 34.7355C24.1301 34.3171 24.3901 33.9391 24.7179 33.6248C25.0456 33.3105 25.4341 33.0664 25.8596 32.9076C26.285 32.7489 26.7384 32.6787 27.1919 32.7014C27.6455 32.7241 28.0896 32.8393 28.497 33.0398C28.9045 33.2403 29.2666 33.522 29.5613 33.8675L37.0413 41.6675L51.0013 27.6675C51.63 27.0603 52.472 26.7243 53.346 26.7319C54.22 26.7395 55.056 27.0901 55.674 27.7081C56.2921 28.3261 56.6426 29.1621 56.6502 30.0361C56.6578 30.9101 56.3218 31.7521 55.7146 32.3808L55.728 32.3908Z" fill="#35B871"/>
</g>
<defs>
<clipPath id="clip0_1_3722">
<rect width="80" height="80" fill="white"/>
</clipPath>
</defs>
</svg>
