<svg width="24" height="24" viewBox="0 0 24 24" fill="none" xmlns="http://www.w3.org/2000/svg">
<path d="M19.3846 10.1538C19.8944 10.1538 20.3077 9.74057 20.3077 9.23077C20.3077 8.72097 19.8944 8.30769 19.3846 8.30769C18.8748 8.30769 18.4615 8.72097 18.4615 9.23077C18.4615 9.74057 18.8748 10.1538 19.3846 10.1538Z" fill="white"/>
<path d="M9.23077 16.6154C9.23077 16.1056 9.64405 15.6923 10.1538 15.6923H13.8462C14.356 15.6923 14.7692 16.1056 14.7692 16.6154C14.7692 17.1252 14.356 17.5385 13.8462 17.5385H10.1538C9.64405 17.5385 9.23077 17.1252 9.23077 16.6154Z" fill="white"/>
<path d="M9.23077 19.3846C9.23077 18.8748 9.64405 18.4615 10.1538 18.4615H13.8462C14.356 18.4615 14.7692 18.8748 14.7692 19.3846C14.7692 19.8944 14.356 20.3077 13.8462 20.3077H10.1538C9.64405 20.3077 9.23077 19.8944 9.23077 19.3846Z" fill="white"/>
<path fill-rule="evenodd" clip-rule="evenodd" d="M18.4615 4.61538V0.923077C18.4615 0.413276 18.0483 0 17.5385 0H6.46154C5.95174 0 5.53846 0.413276 5.53846 0.923077V4.61538H2.76923C1.23983 4.61538 0 5.85521 0 7.38462V15.6923C0 17.2217 1.23983 18.4615 2.76923 18.4615H5.53846V23.0769C5.53846 23.5867 5.95174 24 6.46154 24H17.5385C18.0483 24 18.4615 23.5867 18.4615 23.0769V18.4615H21.2308C22.7602 18.4615 24 17.2217 24 15.6923V7.38462C24 5.85521 22.7602 4.61538 21.2308 4.61538H18.4615ZM7.38462 1.84615V4.61538H16.6154V1.84615H7.38462ZM18.4615 16.6154H21.2308C21.7406 16.6154 22.1538 16.2021 22.1538 15.6923V7.38462C22.1538 6.87481 21.7406 6.46154 21.2308 6.46154H2.76923C2.25943 6.46154 1.84615 6.87481 1.84615 7.38462V15.6923C1.84615 16.2021 2.25943 16.6154 2.76923 16.6154H5.53846V12.9231C5.53846 12.4133 5.95174 12 6.46154 12H17.5385C18.0483 12 18.4615 12.4133 18.4615 12.9231V16.6154ZM7.38462 13.8462V22.1538H16.6154V13.8462H7.38462Z" fill="white"/>
</svg>
